<svg width="46" height="60" viewBox="0 0 46 60" fill="none" xmlns="http://www.w3.org/2000/svg">
<g clip-path="url(#clip0_2661_53)">
<path d="M45.2174 22.5C45.2174 35.625 22.6087 60 22.6087 60C22.6087 60 0 35.625 0 22.5C0 10.0781 10.1268 0 22.6087 0C35.0906 0 45.2174 10.0781 45.2174 22.5Z" fill="#5E9DFB"/>
<path opacity="0.8" d="M31.23 24.4789L21.2913 14.4541L16.2602 9.37763C15.7582 9.15615 15.2165 9.04238 14.6691 9.04346C12.2468 9.04346 10.2772 11.299 10.225 14.1004V26.2054C10.2163 26.8882 10.3402 27.566 10.5896 28.2001C10.839 28.8343 11.209 29.4124 11.6784 29.9013C12.1479 30.3903 12.7077 30.7806 13.3258 31.05C13.9439 31.3194 14.6082 31.4625 15.2808 31.4712H29.2083C30.0263 31.0642 30.7164 30.4338 31.201 29.6507C31.6856 28.8676 31.9455 27.9628 31.9515 27.038C31.9511 26.1333 31.7012 25.2468 31.23 24.4789Z" fill="white" fill-opacity="0.8"/>
<path opacity="0.8" d="M30.3986 14.6506H16.4721C15.6539 15.0576 14.9637 15.6881 14.4791 16.4712C13.9944 17.2543 13.7345 18.1591 13.7285 19.0838C13.7277 19.9888 13.9757 20.876 14.4446 21.6457L24.3846 31.6706L29.4301 36.7442C29.9297 36.9643 30.4685 37.078 31.0131 37.0784C33.433 37.0784 35.4029 34.8256 35.455 32.0242V19.9137C35.4719 18.5353 34.9486 17.2065 34.0004 16.2195C33.0522 15.2326 31.7566 14.6682 30.3986 14.6506Z" fill="white" fill-opacity="0.51"/>
</g>
<defs>
<clipPath id="clip0_2661_53">
<rect width="45.2174" height="60" fill="white"/>
</clipPath>
</defs>
</svg>
